<svg xmlns="http://www.w3.org/2000/svg" viewBox="0 0 500 157.71"><defs><style>.cls-1{fill:#fff;}</style></defs><title>Recurso 1</title><g id="Capa_2" data-name="Capa 2"><g id="Capa_1-2" data-name="Capa 1"><path class="cls-1" d="M78.88,0h0a78.86,78.86,0,1,0,78.88,78.83h0A78.83,78.83,0,0,0,78.88,0Zm63.83,77.72A64.25,64.25,0,1,1,78.45,13.47a64.27,64.27,0,0,1,64.26,64.25Z"/><polygon class="cls-1" points="68.74 23.67 30.44 112.21 47.84 112.21 85.84 23.67 68.74 23.67"/><path class="cls-1" d="M97.15,82.39l13,29.76h17.11l-16.8-40A45,45,0,0,1,97.15,82.39Z"/><path class="cls-1" d="M109.33,64.8c14-31.17-17.41-39.71-17.41-39.71L68.5,80.79C97.77,86.88,109.33,64.8,109.33,64.8Z"/><path class="cls-1" d="M218,55.77H177.32V102h14.39V90.08H221c11.13-.49,11.31-11.93,11.31-11.93V66.47C231.92,55.52,218,55.77,218,55.77Zm-4.18,22.5H191.66V66.71l.06-.18h21.95s4.5-.25,4.5,3.32v5S218.52,78.21,213.79,78.27Z"/><path class="cls-1" d="M292.72,55.71H253.26a11.88,11.88,0,0,0-12,11.72V90.28a11.92,11.92,0,0,0,12,11.75h39.46a11.89,11.89,0,0,0,12.06-11.72V67.46A11.93,11.93,0,0,0,292.72,55.71Zm-2,16.17v14a6.23,6.23,0,0,1-6.21,6.27h-23.8a6.24,6.24,0,0,1-6.23-6.26h0v-14a6.26,6.26,0,0,1,6.22-6.28h23.8a6.24,6.24,0,0,1,6.22,6.27Z"/><path class="cls-1" d="M365.76,83.41l-.6,0h.13a6,6,0,0,0,6-6V61.73a6,6,0,0,0-6-6H315.18V102h14.63V87.62H353.9c3.93.06,3.46,3.45,3.46,3.45V102h14.08V90.77A6.58,6.58,0,0,0,365.76,83.41Zm-12.83-6.25v0H330.8V65.6l.06-.18h21.95s4.5-.25,4.5,3.32v5C357.36,73.72,357.66,77.1,352.93,77.16Z"/><path class="cls-1" d="M403.47,55.83l-25.21,46.11h16l3.87-7.5h29.82l3.2,7.5h16L421.55,55.83Zm0,28.22,9.22-16.78,9.23,16.78Z"/><polygon class="cls-1" points="468.09 89.83 468.09 55.77 454.56 55.77 454.56 101.94 500 101.94 500 89.84 468.09 89.83"/></g></g></svg>